<svg id="Layer_1" data-name="Layer 1" xmlns="http://www.w3.org/2000/svg" viewBox="0 0 279.33 56.33"><defs><style>.cls-1{fill:#1b2123}.cls-2{fill:#636b6f}</style></defs><path class="cls-1" d="M25.11 24a8.44 8.44 0 0 1-1 4.28A8.23 8.23 0 0 1 21.42 31a11.77 11.77 0 0 1-3.8 1.51 20.38 20.38 0 0 1-4.37.46H.87V1.9h12.38a19 19 0 0 1 3.69.38 11 11 0 0 1 3.43 1.27A7.2 7.2 0 0 1 22.87 6a7.24 7.24 0 0 1 1 3.91 6.47 6.47 0 0 1-1.4 4.28 7.85 7.85 0 0 1-3.69 2.43v.09a8.7 8.7 0 0 1 2.48.81 7.11 7.11 0 0 1 2 1.52 6.9 6.9 0 0 1 1.36 2.15 7.16 7.16 0 0 1 .49 2.81zm-8.52-13a2.48 2.48 0 0 0-1.21-2.4 7.08 7.08 0 0 0-3.58-.72H8.12v6.41h4a5.46 5.46 0 0 0 3.27-.86 2.94 2.94 0 0 0 1.2-2.52zm1 12.33a2.75 2.75 0 0 0-1.45-2.68 8.55 8.55 0 0 0-3.86-.74H8.12v7.11h4.21a11.55 11.55 0 0 0 1.82-.15 5.88 5.88 0 0 0 1.72-.55 3.11 3.11 0 0 0 1.73-3zm34.88 3.05a11 11 0 0 1-2.7 3.95 12.39 12.39 0 0 1-4.24 2.57 15.57 15.57 0 0 1-5.51.93 15.53 15.53 0 0 1-5.53-.93 11.89 11.89 0 0 1-4.17-2.57 11 11 0 0 1-2.64-3.95 13.71 13.71 0 0 1-.92-5.11V1.9h7.46v18.75a8.68 8.68 0 0 0 .33 2.42 6.28 6.28 0 0 0 1 2 4.83 4.83 0 0 0 1.8 1.43 7.27 7.27 0 0 0 5.4 0 4.93 4.93 0 0 0 1.83-1.43 5.91 5.91 0 0 0 1-2 9.49 9.49 0 0 0 .3-2.42V1.9h7.51v19.37a13.33 13.33 0 0 1-.92 5.11zm19.3-18.07V33h-7.5V8.31h-8.79V1.9h25.07v6.41zM82 33V1.9h7.55v24.55h12V33zm22.07 0V1.9H125v6.33h-13.68v5.88h12.9v6h-12.9v6.45h14.44V33zm40.29 0l-6.75-12.34h-2.56V33h-7.33V1.9h11.86a20.36 20.36 0 0 1 4.36.47 11.17 11.17 0 0 1 3.82 1.55 8.17 8.17 0 0 1 2.7 2.9 9 9 0 0 1 1 4.48 8.25 8.25 0 0 1-1.71 5.31 9.33 9.33 0 0 1-4.75 3.08L153.14 33zm-.31-21.56a3.12 3.12 0 0 0-.46-1.78 3.25 3.25 0 0 0-1.19-1.06 5 5 0 0 0-1.63-.5A12 12 0 0 0 139 8h-4v7.25h3.57a11.33 11.33 0 0 0 1.9-.16 5.94 5.94 0 0 0 1.76-.54 3.45 3.45 0 0 0 1.31-1.15 3.41 3.41 0 0 0 .51-1.97z"/><path class="cls-2" d="M158.91 30.18h14.49V33h-17.65V1.9h3.16zm20.39 0h16.64V33h-19.8V1.9h19.28v2.81H179.3v10.67h15.06v2.81H179.3zm44.41-22.66a11.32 11.32 0 0 0-3.86-2.65 13.16 13.16 0 0 0-5.14-1A12.81 12.81 0 0 0 209.33 5a12.24 12.24 0 0 0-4.06 3 13.22 13.22 0 0 0-2.57 4.32 15.3 15.3 0 0 0 0 10.34 13 13 0 0 0 2.57 4.3 12.47 12.47 0 0 0 4.06 2.94 12.8 12.8 0 0 0 5.38 1.1 19.16 19.16 0 0 0 4.83-.57A12.24 12.24 0 0 0 223.1 29v-9.49h-7.25V16.7h10.41v14a20.13 20.13 0 0 1-5.49 2.3 24.62 24.62 0 0 1-6.1.75 16.87 16.87 0 0 1-6.5-1.23 15.33 15.33 0 0 1-5.14-3.4 15.67 15.67 0 0 1-3.36-5.12 17.38 17.38 0 0 1-1.21-6.54 17 17 0 0 1 1.23-6.54 15.53 15.53 0 0 1 8.54-8.57 16.64 16.64 0 0 1 6.44-1.23 17.35 17.35 0 0 1 6.49 1.12 14 14 0 0 1 4.75 3.1zM232.12 33h-3.47l13.43-31.1h3.08L258.5 33H255l-3.42-8.17H235.5zm4.56-11.06h13.7l-6.85-16.52zm27.55 8.24h14.49V33h-17.65V1.9h3.16zM5 50.88H3.74v-8.11h-3v-1.14H8v1.14H5zm26.42-1.15h4.83v1.15h-6.12v-9.25h5.93v1.14h-4.64v2.77h4.36v1.11h-4.36zm35.39-.28a4.24 4.24 0 0 1-1.43 1.21 4.52 4.52 0 0 1-2.1.46 5.2 5.2 0 0 1-2-.36 4.39 4.39 0 0 1-1.54-1 4.71 4.71 0 0 1-1-1.54 5.18 5.18 0 0 1-.36-2 5 5 0 0 1 .37-2 4.44 4.44 0 0 1 1-1.53 4.83 4.83 0 0 1 1.56-1 5.5 5.5 0 0 1 2-.35 5.2 5.2 0 0 1 1 .09 4.33 4.33 0 0 1 .93.28 3.67 3.67 0 0 1 .8.45 2.48 2.48 0 0 1 .63.62l-1 .78a2.53 2.53 0 0 0-1-.78 3 3 0 0 0-1.34-.3 3.39 3.39 0 0 0-1.45.29 3.43 3.43 0 0 0-1.11.8 3.63 3.63 0 0 0-.7 1.19 4 4 0 0 0-.25 1.43 4.34 4.34 0 0 0 .24 1.46 3.47 3.47 0 0 0 .69 1.18 3.13 3.13 0 0 0 1.1.79 3.53 3.53 0 0 0 1.44.29 3.33 3.33 0 0 0 1.43-.31 2.76 2.76 0 0 0 1.06-.92zM89 41.63h1.29v3.87H95v-3.87h1.31v9.25H95v-4.23h-4.68v4.23H89zM126 49v-7.4h1.29v9.25h-1.63l-4.89-7.55v7.55h-1.29v-9.22h1.68zm33.77-2.75a5 5 0 0 1-.37 2 4.58 4.58 0 0 1-1 1.54 4.43 4.43 0 0 1-1.55 1 5.52 5.52 0 0 1-3.92 0 4.48 4.48 0 0 1-1.54-1 4.41 4.41 0 0 1-1-1.54 5.43 5.43 0 0 1 0-3.94 4.28 4.28 0 0 1 1-1.53 4.74 4.74 0 0 1 1.54-1 5.66 5.66 0 0 1 3.92 0 4.68 4.68 0 0 1 1.55 1 4.44 4.44 0 0 1 1 1.53 5 5 0 0 1 .37 1.94zm-1.4 0a4 4 0 0 0-.25-1.43 3.63 3.63 0 0 0-.7-1.19 3.33 3.33 0 0 0-1.11-.8 3.77 3.77 0 0 0-2.9 0 3.25 3.25 0 0 0-1.09.8 3.63 3.63 0 0 0-.7 1.19 4 4 0 0 0-.25 1.43 4.13 4.13 0 0 0 .25 1.45 3.59 3.59 0 0 0 .7 1.18 3.36 3.36 0 0 0 1.1.79 3.53 3.53 0 0 0 1.44.29 3.61 3.61 0 0 0 1.45-.29 3.4 3.4 0 0 0 1.11-.79 3.59 3.59 0 0 0 .7-1.18 4.13 4.13 0 0 0 .25-1.45zm25.36 3.48h4.13v1.15h-5.43v-9.25h1.3zM219 46.25a5 5 0 0 1-.38 2 4.55 4.55 0 0 1-1 1.54 4.47 4.47 0 0 1-1.56 1 5.49 5.49 0 0 1-3.91 0 4.62 4.62 0 0 1-1.55-1 4.71 4.71 0 0 1-1-1.54 5.57 5.57 0 0 1 0-3.94 4.56 4.56 0 0 1 1-1.53 4.89 4.89 0 0 1 1.55-1 5.64 5.64 0 0 1 3.91 0 4.73 4.73 0 0 1 1.56 1 4.42 4.42 0 0 1 1 1.53 5 5 0 0 1 .38 1.94zm-1.4 0a4 4 0 0 0-.25-1.43 3.63 3.63 0 0 0-.7-1.19 3.43 3.43 0 0 0-1.11-.8 3.77 3.77 0 0 0-2.9 0 3.29 3.29 0 0 0-1.1.8 3.82 3.82 0 0 0-.7 1.19 4.17 4.17 0 0 0-.24 1.43 4.37 4.37 0 0 0 .24 1.45 3.79 3.79 0 0 0 .71 1.18 3.36 3.36 0 0 0 1.1.79A3.46 3.46 0 0 0 214 50a3.61 3.61 0 0 0 1.45-.29 3.4 3.4 0 0 0 1.11-.79 3.59 3.59 0 0 0 .7-1.18 4.13 4.13 0 0 0 .29-1.49zm30.99-2.71a3 3 0 0 0-1.07-.73 3.7 3.7 0 0 0-1.44-.27 3.43 3.43 0 0 0-1.46.29 3.23 3.23 0 0 0-1.11.8 3.66 3.66 0 0 0-.71 1.19 4.17 4.17 0 0 0-.25 1.43 4.37 4.37 0 0 0 .25 1.45 3.61 3.61 0 0 0 .71 1.18 3.24 3.24 0 0 0 1.12.79 3.74 3.74 0 0 0 1.49.29 5.61 5.61 0 0 0 1.2-.12 3.61 3.61 0 0 0 1-.34v-2.57h-2.06v-1.1h3.34v4.48a6.79 6.79 0 0 1-1.6.6 7.9 7.9 0 0 1-1.88.21 5.34 5.34 0 0 1-2-.36 4.54 4.54 0 0 1-2.58-2.55 5 5 0 0 1-.37-2 5.21 5.21 0 0 1 .37-2 4.46 4.46 0 0 1 1-1.53 4.83 4.83 0 0 1 1.56-1 5.42 5.42 0 0 1 2-.35 5.55 5.55 0 0 1 2 .33 4.11 4.11 0 0 1 1.44.87zm27.07 7.34h-1.31v-4l-3.46-5.26h1.59l2.52 4.2 2.58-4.19h1.5l-3.46 5.26z"/></svg>